<svg height="72" viewBox="0 0 74 72" width="74" xmlns="http://www.w3.org/2000/svg"><g fill="none" fill-rule="evenodd"><path d="m35.922 71.609 13.211-40.945h-26.423z" fill="#e38800"/><path d="m35.922 71.609-13.212-40.945h-18.515z" fill="#f7980a"/><path d="m4.195 30.664-4.015 12.443a2.765 2.765 0 0 0 .994 3.08l34.748 25.422z" fill="#fca326"/><path d="m4.195 30.664h18.515l-7.957-24.66c-.41-1.27-2.192-1.27-2.601 0z" fill="#e38800"/><path d="m35.922 71.609 13.211-40.945h18.515z" fill="#f7980a"/><path d="m67.648 30.664 4.015 12.443a2.765 2.765 0 0 1 -.993 3.08l-34.748 25.421 31.726-40.945z" fill="#fca326"/><path d="m67.648 30.664h-18.515l7.957-24.66c.41-1.27 2.192-1.27 2.601 0z" fill="#e38800"/><path d="m28.786 22.224-1.026 2.94-1.662-2.705-2.941-1.026 2.706-1.662 1.167-2.953 1.662 2.706 2.953 1.167m-26.073-11.456-1.473 2.744-1.219-2.932-2.744-1.474 2.932-1.218 1.615-2.735 1.219 2.932 2.734 1.615m-.551 53.578-.776 3.917-2.436-3.056-3.783-.983 3.056-2.436.983-3.783 2.346 3.196 4.1.796m48.062 8.848-1.03 2.744-1.577-2.47-2.744-1.03 2.47-1.578 1.03-2.744 1.577 2.47 2.745 1.03m7.096-59.628-2.128 3.379-1.18-3.726-3.179-2.273 3.726-1.18 2.273-3.18 1.046 3.823 3.543 2.213" fill="#ffce29" fill-rule="nonzero"/></g></svg>